<svg xmlns="http://www.w3.org/2000/svg" version="1.0" width="256.000000pt" height="256.000000pt" viewBox="0 0 256.000000 256.000000" preserveAspectRatio="xMidYMid meet">

<g transform="translate(0.000000,256.000000) scale(0.100000,-0.100000)" fill="#6b1313" stroke="none">
<path d="M498 2539 c-224 -30 -376 -154 -462 -379 -20 -54 -21 -69 -24 -841 -3 -876 -3 -871 63 -1006 49 -99 130 -179 233 -231 134 -67 136 -67 972 -67 827 0 826 0 962 67 91 46 189 146 234 241 64 136 65 154 62 999 -4 824 -2 793 -64 925 -38 80 -139 183 -223 227 -137 72 -111 70 -941 72 -410 1 -775 -2 -812 -7z m1447 -940 c56 -16 92 -44 116 -91 19 -36 20 -55 17 -242 l-3 -203 -29 -37 c-16 -21 -48 -47 -72 -57 -41 -19 -72 -19 -717 -17 l-673 3 -41 27 c-73 48 -83 85 -83 298 0 165 2 188 21 226 20 43 64 78 117 94 43 13 1299 12 1347 -1z" fill="#6b1313"/>
<path d="M606 1550 c-15 -5 -37 -17 -48 -27 -43 -39 -48 -64 -48 -243 0 -202 7 -227 74 -260 41 -20 58 -20 690 -20 717 0 697 -2 737 64 17 27 19 53 19 215 0 165 -2 187 -20 216 -38 62 -12 60 -725 62 -357 1 -663 -2 -679 -7z m194 -119 c0 -5 -9 -13 -20 -16 -18 -6 -20 -15 -20 -111 0 -122 12 -144 78 -144 69 0 77 14 80 138 4 104 3 109 -17 115 -42 11 -21 27 34 27 52 0 73 -14 40 -26 -11 -4 -15 -21 -16 -58 -1 -107 -14 -186 -36 -207 -45 -46 -160 -44 -209 2 -23 21 -24 29 -24 135 0 103 -2 114 -20 124 -38 20 -20 30 55 30 41 0 75 -4 75 -9z m455 -16 c29 -28 30 -43 11 -89 -15 -36 -58 -60 -100 -54 -31 4 -38 21 -10 27 31 5 44 22 44 56 0 38 -19 58 -52 53 -22 -3 -23 -7 -26 -108 -3 -123 1 -146 28 -153 11 -3 20 -10 20 -16 0 -7 -29 -11 -80 -11 -76 0 -103 11 -60 25 19 6 20 15 20 135 0 119 -1 128 -20 133 -11 3 -20 10 -20 16 0 7 37 11 110 11 104 0 112 -1 135 -25z m266 -119 c32 -77 65 -144 74 -148 32 -18 13 -28 -53 -28 -74 0 -94 8 -63 24 18 10 18 14 5 44 -13 32 -15 33 -66 30 -48 -3 -54 -6 -63 -31 -8 -24 -6 -30 8 -38 32 -18 17 -29 -38 -29 -54 0 -70 11 -40 28 9 4 35 55 59 113 24 57 51 121 59 142 13 30 21 38 38 35 16 -2 33 -32 80 -142z m347 128 c34 -24 31 -87 -8 -125 -24 -25 -37 -30 -67 -27 -41 3 -59 28 -21 28 32 0 48 18 48 51 0 34 -24 59 -56 59 l-24 0 0 -129 0 -129 25 -6 c47 -12 14 -26 -61 -26 -74 0 -92 10 -54 30 18 10 20 21 20 130 0 109 -2 120 -20 130 -41 22 -18 30 88 30 81 0 113 -4 130 -16z" fill="#6b1313"/>
<path d="M1396 1300 c-9 -22 -16 -43 -16 -45 0 -3 18 -5 40 -5 l40 0 -15 38 c-24 55 -31 57 -49 12z" fill="#6b1313"/>
</g>
</svg>